<svg width="64" height="64" viewBox="0 0 64 64" fill="none" xmlns="http://www.w3.org/2000/svg">
<path d="M51.4434 15.9998H53.3335C54.8063 15.9998 56.0002 17.1937 56.0002 18.6665V37.333C56.0002 38.8058 54.8063 39.9997 53.3335 39.9997H48.0002L36.8847 24.438C35.5583 22.5812 33.1978 21.7739 31.0122 22.4295L24.3848 24.4178C22.5056 24.9816 20.4685 24.468 19.0811 23.0806L18.3004 22.2999C17.1105 21.11 17.3066 19.1289 18.7068 18.1955L33.1095 8.59361C34.8669 7.42217 37.1495 7.39787 38.9314 8.53169L50.0119 15.5829C50.4397 15.8552 50.9365 15.9998 51.4434 15.9998ZM13.4052 38.1192L9.09653 41.8893C7.83943 42.989 7.89154 44.9608 9.20503 45.993L22.9137 56.764C24.1939 57.7698 26.0688 57.4037 26.8765 55.9901L28.7535 52.7053C29.9002 50.6986 29.6239 48.1818 28.0693 46.4717L20.8636 38.5453C18.9088 36.3949 15.5923 36.2056 13.4052 38.1192ZM18.7879 13.3333H7.99967C6.52693 13.3333 5.33301 14.5272 5.33301 16V36.0421C5.33301 37.1312 5.66567 38.1794 6.26685 39.057C6.33061 38.9968 6.39583 38.9373 6.46253 38.8789L10.7712 35.1088C14.5985 31.76 20.4024 32.0914 23.8234 35.8546L31.0293 43.781C33.7498 46.7736 34.2333 51.1781 32.2266 54.6898L30.4818 57.7434C31.9829 58.3122 33.693 58.184 35.117 57.3296L46.8749 50.2749C48.2093 49.4741 48.5773 47.7056 47.6733 46.4389L33.6287 26.7629C33.297 26.2988 32.7069 26.0969 32.1605 26.2608L25.5331 28.249C22.2444 29.2357 18.6795 28.337 16.2516 25.909L15.4708 25.1283C12.4961 22.1535 12.9865 17.2009 16.4869 14.8673L18.7879 13.3333Z" fill="#BD090C"/>
</svg>
