<svg width="123" height="18" viewBox="0 0 123 18" fill="none" xmlns="http://www.w3.org/2000/svg">
<g clip-path="url(#clip0_195_149)">
<path d="M9.50094 13.695L4.21085 16.6562L5.39235 10.7099L0.941406 6.59385L6.96169 5.88004L9.50094 0.375L12.0401 5.88004L18.0604 6.59385L13.6095 10.7099L14.791 16.6562L9.50094 13.695Z" fill="#FEC600"/>
</g>
<g clip-path="url(#clip1_195_149)">
<path d="M35.5009 13.695L30.2109 16.6562L31.3923 10.7099L26.9414 6.59385L32.9617 5.88004L35.5009 0.375L38.0401 5.88004L44.0604 6.59385L39.6095 10.7099L40.791 16.6562L35.5009 13.695Z" fill="#FEC600"/>
</g>
<g clip-path="url(#clip2_195_149)">
<path d="M61.5009 13.695L56.2109 16.6562L57.3923 10.7099L52.9414 6.59385L58.9617 5.88004L61.5009 0.375L64.0401 5.88004L70.0604 6.59385L65.6095 10.7099L66.791 16.6562L61.5009 13.695Z" fill="#FEC600"/>
</g>
<g clip-path="url(#clip3_195_149)">
<path d="M87.5009 13.695L82.2109 16.6562L83.3923 10.7099L78.9414 6.59385L84.9617 5.88004L87.5009 0.375L90.0401 5.88004L96.0604 6.59385L91.6095 10.7099L92.791 16.6562L87.5009 13.695Z" fill="#FEC600"/>
</g>
<g clip-path="url(#clip4_195_149)">
<path d="M113.501 11.976L116.686 13.7588L115.975 10.1788L118.654 7.70055L115.03 7.27075L113.501 3.95626V11.976ZM113.501 13.695L108.211 16.6562L109.392 10.7099L104.941 6.59385L110.962 5.88004L113.501 0.375L116.04 5.88004L122.06 6.59385L117.61 10.7099L118.791 16.6562L113.501 13.695Z" fill="#FEC600"/>
</g>
<defs>
<clipPath id="clip0_195_149">
<rect width="18" height="18" fill="white" transform="translate(0.5)"/>
</clipPath>
<clipPath id="clip1_195_149">
<rect width="18" height="18" fill="white" transform="translate(26.5)"/>
</clipPath>
<clipPath id="clip2_195_149">
<rect width="18" height="18" fill="white" transform="translate(52.5)"/>
</clipPath>
<clipPath id="clip3_195_149">
<rect width="18" height="18" fill="white" transform="translate(78.5)"/>
</clipPath>
<clipPath id="clip4_195_149">
<rect width="18" height="18" fill="white" transform="translate(104.5)"/>
</clipPath>
</defs>
</svg>
