<svg width="64" height="64" viewBox="0 0 64 64" fill="none" xmlns="http://www.w3.org/2000/svg">
<path d="M26.6663 52.6614V43.7334C26.6663 40.3131 29.3191 37.6203 33.2442 36.0856C30.7813 35.168 28.1157 34.6667 25.333 34.6667C20.2934 34.6667 15.6379 36.3115 11.874 39.0934C14.2183 45.7451 19.767 50.8854 26.6663 52.6614ZM50.3447 42.8958C49.2962 41.4736 45.7885 40 41.333 40C35.9834 40 31.9997 42.1246 31.9997 43.7334V53.3334C39.801 53.3334 46.6245 49.1456 50.3447 42.8958ZM25.4663 30.6667C28.7799 30.6667 31.4663 27.9803 31.4663 24.6667C31.4663 21.353 28.7799 18.6667 25.4663 18.6667C22.1526 18.6667 19.4663 21.353 19.4663 24.6667C19.4663 27.9803 22.1526 30.6667 25.4663 30.6667ZM41.333 33.3334C44.2786 33.3334 46.6663 30.9456 46.6663 28C46.6663 25.0545 44.2786 22.6667 41.333 22.6667C38.3874 22.6667 35.9997 25.0545 35.9997 28C35.9997 30.9456 38.3874 33.3334 41.333 33.3334ZM31.9997 58.6667C17.2721 58.6667 5.33301 46.7275 5.33301 32C5.33301 17.2724 17.2721 5.33337 31.9997 5.33337C46.7271 5.33337 58.6663 17.2724 58.6663 32C58.6663 46.7275 46.7271 58.6667 31.9997 58.6667Z" fill="#BD090C"/>
</svg>
