<svg width="64" height="64" viewBox="0 0 64 64" fill="none" xmlns="http://www.w3.org/2000/svg">
<path d="M6.66634 18.6667C6.66634 24.5577 11.442 29.3333 17.333 29.3333C23.224 29.3333 27.9997 24.5577 27.9997 18.6667C27.9997 12.7756 23.224 8 17.333 8C11.442 8 6.66634 12.7756 6.66634 18.6667ZM5.33301 56V44C5.33301 37.3725 10.7056 32 17.333 32C23.9604 32 29.333 37.3725 29.333 44V56H5.33301ZM46.6663 29.3333C40.7754 29.3333 35.9997 24.5577 35.9997 18.6667C35.9997 12.7756 40.7754 8 46.6663 8C52.5573 8 57.333 12.7756 57.333 18.6667C57.333 24.5577 52.5573 29.3333 46.6663 29.3333ZM34.6663 56V44C34.6663 37.3725 40.0389 32 46.6663 32C53.2938 32 58.6663 37.3725 58.6663 44V56H34.6663Z" fill="#BD090C"/>
</svg>
